<svg width="480" height="119" viewBox="0 0 480 119" fill="none" xmlns="http://www.w3.org/2000/svg">
<path fill-rule="evenodd" clip-rule="evenodd" d="M155.234 38.2353C155.234 42.2418 154.798 45.814 153.879 48.9999C152.959 52.1955 151.652 54.8988 149.871 57.1675C148.129 59.3881 145.96 61.1258 143.443 62.3326C140.926 63.5491 138.032 64.1284 134.75 64.1284C131.556 64.1284 128.71 63.5491 126.193 62.3326C123.686 61.1258 121.508 59.4363 119.717 57.1675C117.936 54.947 116.58 52.1955 115.661 48.9999C114.693 45.814 114.218 42.1936 114.218 38.2353V30.9365C114.218 26.9782 114.693 23.3964 115.612 20.2105C116.532 17.0245 117.887 14.3213 119.678 12.0911C121.459 9.87063 123.589 8.13283 126.096 6.92603C128.613 5.71923 131.459 5.0917 134.654 5.0917C137.887 5.0917 140.83 5.71923 143.347 6.92603C145.912 8.13283 148.032 9.87063 149.823 12.0911C151.556 14.3213 152.911 17.0245 153.83 20.2105C154.75 23.3964 155.234 26.9782 155.234 30.9365V38.2353ZM153.782 8.51901C151.507 5.81578 148.758 3.74008 145.525 2.29192C142.282 0.834107 138.661 0.110025 134.702 0.110025C130.781 0.110025 127.258 0.834107 124.025 2.29192C120.83 3.74008 118.081 5.81578 115.806 8.51901C113.541 11.2222 111.75 14.4661 110.491 18.2796C109.233 22.0931 108.613 26.3507 108.613 31.0331V38.2353C108.613 42.9176 109.233 47.1656 110.491 50.9887C111.75 54.8022 113.541 58.0364 115.854 60.6914C118.178 63.356 120.927 65.4317 124.121 66.8799C127.306 68.328 130.878 69.0521 134.799 69.0521C136.193 69.0521 137.5 68.9556 138.806 68.7625C140.065 68.5694 141.314 68.328 142.524 67.9901L156.202 79.8264L160.113 76.3026L147.887 65.6731C149.968 64.4663 151.798 62.9698 153.395 61.1741C154.992 59.3881 156.396 57.3124 157.499 54.9953C158.612 52.6783 159.484 50.0716 160.065 47.2621C160.645 44.4624 160.936 41.4212 160.936 38.187V30.9848C160.936 26.3024 160.307 22.0448 159.048 18.2313C157.79 14.4661 156.057 11.2222 153.782 8.51901ZM206.104 54.3678C205.62 55.8159 204.991 57.1193 204.226 58.3261C203.403 59.5329 202.387 60.5466 201.177 61.4638C199.967 62.3327 198.476 63.0664 196.782 63.5491C195.088 64.0318 193.162 64.2732 190.935 64.2732C189.386 64.2732 187.896 64.0318 186.492 63.5974C185.088 63.1629 183.878 62.3906 182.823 61.2707C181.758 60.2087 180.935 58.7605 180.306 56.9745C179.677 55.1884 179.387 52.9679 179.387 50.3033V18.2796H173.927V50.2164C173.927 53.6437 174.314 56.54 175.088 58.9053C175.863 61.2707 176.976 63.2595 178.418 64.7559C179.871 66.2523 181.613 67.3626 183.588 68.0384C185.572 68.7142 187.799 69.0521 190.258 69.0521C194.12 69.0521 197.315 68.4246 199.919 67.1212C202.532 65.8662 204.613 64.0801 206.153 61.8113L206.249 68.1349H211.612V18.2796H206.056V54.3678H206.104ZM256.355 54.3678C255.726 55.7677 254.903 57.0227 253.886 58.2295C252.87 59.3881 251.67 60.45 250.314 61.3189C248.911 62.1975 247.362 62.9216 245.678 63.4043C243.983 63.887 242.096 64.1767 240.121 64.1767C238.379 64.1767 236.83 63.9353 235.484 63.4043C234.08 62.8733 232.919 62.1975 231.951 61.3189C230.983 60.45 230.266 59.4363 229.734 58.2295C229.202 57.071 228.96 55.7677 228.96 54.416C228.96 52.6783 229.347 51.1335 230.17 49.7723C230.983 48.4207 232.144 47.2621 233.693 46.2967C235.242 45.3312 237.12 44.6072 239.347 44.1245C241.563 43.6417 244.08 43.3521 246.926 43.3521H256.403V54.3678H256.355ZM262.202 63.105C262.057 62.2458 261.96 61.3672 261.911 60.45C261.863 59.5329 261.815 58.6157 261.815 57.7951V33.6398C261.815 30.9365 261.379 28.5712 260.459 26.5438C259.588 24.5067 258.33 22.8172 256.742 21.4656C255.145 20.114 253.209 19.1002 250.992 18.4244C248.766 17.7486 246.307 17.4107 243.693 17.4107C240.847 17.4107 238.233 17.8452 235.871 18.6658C233.5 19.4864 231.515 20.5967 229.831 21.9483C228.137 23.2999 226.83 24.8929 225.92 26.6403C225 28.3781 224.516 30.2125 224.516 32.0951L230.073 32.1433C230.073 30.7434 230.412 29.4884 231.08 28.2333C231.757 27.0265 232.677 25.9549 233.838 25.0377C235 24.1205 236.442 23.3964 238.04 22.8655C239.685 22.3345 241.467 22.0931 243.403 22.0931C247.604 22.0931 250.798 23.1068 253.015 25.1342C255.193 27.1713 256.307 29.9711 256.307 33.5432V39.2007H246.065C242.531 39.2007 239.395 39.5386 236.588 40.2627C233.79 40.9868 231.37 42.0488 229.444 43.4004C227.459 44.752 225.959 46.4415 224.903 48.3724C223.839 50.3033 223.355 52.5334 223.355 54.947C223.355 56.9745 223.742 58.8571 224.516 60.5466C225.291 62.2844 226.346 63.7905 227.75 65.0455C229.153 66.3006 230.847 67.3143 232.822 68.0384C234.806 68.7625 237.023 69.1004 239.443 69.1004C241.428 69.1004 243.257 68.9073 244.951 68.4728C246.646 68.0384 248.185 67.4591 249.588 66.7833C250.992 66.0593 252.289 65.2386 253.402 64.2732C254.564 63.3077 255.532 62.2844 256.355 61.2224C256.403 62.5257 256.549 63.7905 256.694 65.0455C256.839 66.3006 257.081 67.3626 257.41 68.1832H263.305V67.604C263.073 67.0247 262.831 66.3489 262.686 65.5765C262.541 64.8042 262.347 63.9836 262.202 63.105ZM309.936 21.6104C308.58 20.114 306.886 19.052 304.912 18.3762C302.927 17.7003 300.701 17.3624 298.242 17.3624C296.451 17.3624 294.757 17.6038 293.169 18.0383C291.572 18.4727 290.072 19.1002 288.678 19.9691C287.274 20.7898 286.016 21.8035 284.902 22.962C283.799 24.1205 282.782 25.4239 281.911 26.8334L281.717 18.2796H276.451V68.1832H281.959V34.0259C282.492 32.5295 283.17 31.0331 284.089 29.6332C284.951 28.185 286.016 26.93 287.274 25.8197C288.484 24.6998 289.926 23.8309 291.524 23.1551C293.121 22.4793 294.902 22.1414 296.887 22.1414C298.677 22.1414 300.265 22.3827 301.765 22.8172C303.217 23.2516 304.476 24.024 305.483 25.0377C306.499 26.1093 307.274 27.4609 307.854 29.1987C308.387 30.9365 308.677 33.0605 308.677 35.6672V68.1832H314.185V35.7155C314.185 32.433 313.847 29.6332 313.121 27.3161C312.346 24.9894 311.281 23.0585 309.936 21.6104ZM344.185 64.0801C343.41 64.1767 342.646 64.2249 341.774 64.2249C340.903 64.2249 340.08 64.1284 339.306 63.9353C338.531 63.7422 337.805 63.356 337.225 62.7188C336.653 62.1396 336.169 61.2707 335.782 60.2087C335.443 59.1467 335.25 57.7468 335.25 56.009V22.7689H345.588V18.2313H335.298V5.47787H329.79V18.2313H320.613V22.7689H329.79V56.009C329.79 58.5192 330.08 60.5949 330.613 62.2458C331.145 63.9353 331.92 65.2869 332.83 66.2523C333.798 67.2661 334.911 67.9901 336.266 68.3763C337.612 68.8108 339.064 69.0039 340.613 69.0039C341.678 69.0039 342.781 68.9556 343.846 68.8108C344.959 68.6659 345.83 68.4729 346.508 68.2315L346.266 63.6939C345.637 63.887 344.959 63.9836 344.185 64.0801Z" fill="#6786B6"/>
<path fill-rule="evenodd" clip-rule="evenodd" d="M392.741 22.3827V18.2796H356.459V23.0103H385.781L355.54 64.1284V68.1832H394.774V63.5008H362.403L392.741 22.3827Z" fill="#FB4A1A"/>
<path fill-rule="evenodd" clip-rule="evenodd" d="M408.104 0.110025C406.942 0.110025 406.032 0.44793 405.355 1.17201C404.677 1.90574 404.338 2.77464 404.338 3.83662C404.338 4.89861 404.677 5.7675 405.355 6.44331C406.032 7.16739 406.942 7.5053 408.104 7.5053C409.266 7.5053 410.185 7.16739 410.911 6.44331C411.579 5.71923 411.918 4.85034 411.918 3.83662C411.918 2.77464 411.579 1.90574 410.911 1.17201C410.234 0.496202 409.266 0.110025 408.104 0.110025Z" fill="#FB4A1A"/>
<path fill-rule="evenodd" clip-rule="evenodd" d="M405.306 68.1832H410.863V18.2796H405.306V68.1832Z" fill="#FB4A1A"/>
<path fill-rule="evenodd" clip-rule="evenodd" d="M458.258 55.1884C457.629 56.4917 456.903 57.6985 456.031 58.8088C455.16 59.9191 454.144 60.8845 452.992 61.7051C451.83 62.5257 450.475 63.1629 448.926 63.6457C447.435 64.1284 445.693 64.3215 443.805 64.3215C441.298 64.3215 439.12 63.7905 437.29 62.7671C435.451 61.7051 433.951 60.257 432.741 58.4226C431.54 56.5883 430.669 54.416 430.088 51.9059C429.507 49.3861 429.217 46.6829 429.217 43.7865V42.8211C429.217 39.9248 429.507 37.2119 430.088 34.7017C430.669 32.1916 431.589 30.0194 432.741 28.1368C433.951 26.3024 435.451 24.8446 437.29 23.7826C439.12 22.7206 441.346 22.1896 443.854 22.1896C445.886 22.1896 447.677 22.4793 449.216 23.0103C450.765 23.5413 452.121 24.2653 453.234 25.1825C454.386 26.1093 455.354 27.123 456.177 28.3298C456.999 29.4884 457.677 30.7434 458.21 32.0468V55.1884H458.258ZM458.645 18.2796L458.355 25.4721C456.709 22.9137 454.579 20.9346 452.024 19.4864C449.459 18.0383 446.419 17.3624 442.847 17.3624C439.846 17.3624 437.145 17.9417 434.773 19.1485C432.411 20.3553 430.379 22.0448 428.733 24.2653C427.097 26.4955 425.79 29.1505 424.919 32.2882C424.048 35.4258 423.612 38.9111 423.612 42.7728V43.7383C423.612 47.5035 424.048 50.9405 424.919 54.0299C425.79 57.1193 427.049 59.7742 428.733 62.0527C430.379 64.2732 432.411 66.011 434.773 67.2661C437.145 68.5211 439.798 69.1487 442.798 69.1487C446.322 69.1487 449.362 68.4729 451.927 67.1695C454.483 65.8662 456.564 64.0801 458.258 61.7534V67.5557C458.258 70.0658 457.919 72.2381 457.241 74.2172C456.564 76.1578 455.596 77.8473 454.347 79.1989C453.089 80.5505 451.54 81.6125 449.701 82.3366C447.871 83.0607 445.79 83.3986 443.428 83.3986C440.717 83.3986 438.2 82.8193 435.935 81.6608C433.66 80.5022 431.492 78.6679 429.459 76.206L426.371 79.5368C427.378 80.985 428.539 82.24 429.895 83.302C431.25 84.364 432.702 85.2329 434.193 85.957C435.693 86.6907 437.29 87.2217 438.926 87.5596C440.572 87.8975 442.169 88.0906 443.708 88.0906C446.758 88.0906 449.507 87.6079 451.975 86.6328C454.434 85.6673 456.515 84.3157 458.258 82.5297C459.991 80.7436 461.346 78.5714 462.266 76.0129C463.234 73.4449 463.718 70.5486 463.718 67.3143V18.2796H458.645Z" fill="#FB4A1A"/>
<path fill-rule="evenodd" clip-rule="evenodd" d="M78.072 1.75127L61.354 5.33306C60.2021 5.62269 59.5244 6.92603 59.9601 8.03629L79.5724 58.9053L80.6373 3.69181C80.6373 2.38846 79.3788 1.42302 78.072 1.75127Z" fill="#6786B6"/>
<path fill-rule="evenodd" clip-rule="evenodd" d="M51.4994 1.22028C51.1122 0.303114 50.1055 -0.179607 49.089 0.0617528L22.7585 7.21567C21.2096 7.65011 20.7256 9.62927 21.9357 10.6913L77.104 60.1604L51.4994 1.22028Z" fill="#FB4A1A"/>
<path fill-rule="evenodd" clip-rule="evenodd" d="M26.4273 22.431L0 29.4884L75.0808 61.6086L26.4273 22.431Z" fill="#6786B6"/>
<path fill-rule="evenodd" clip-rule="evenodd" d="M82.9509 51.9542L80.2017 62.6319C79.9597 63.5491 79.0884 64.0801 78.1688 63.887L64.4518 60.5949C61.8865 62.8733 60.5893 65.1421 61.2572 66.7351C62.5641 69.8245 70.6375 69.4383 79.282 65.8179C87.9266 62.1878 93.8703 56.7331 92.5732 53.6437C91.6535 51.568 87.8782 51.037 82.9509 51.9542Z" fill="#6786B6"/>
<path fill-rule="evenodd" clip-rule="evenodd" d="M474.385 5.41029L476.186 10.4595L477.996 5.41029H480V12.458H478.703V6.77156L476.757 12.458H475.624L473.659 6.77156V12.458H472.372V5.41029H474.385ZM465.16 6.58813V5.41029H471.172V6.58813H468.868V12.458H467.464V6.58813H465.16Z" fill="#FB4A1A"/>
<path d="M114.153 113.23C112.896 113.23 111.692 113.054 110.542 112.701C109.392 112.333 108.48 111.865 107.805 111.298L108.84 108.975C109.484 109.481 110.281 109.903 111.232 110.24C112.183 110.577 113.156 110.746 114.153 110.746C114.996 110.746 115.679 110.654 116.2 110.47C116.721 110.286 117.105 110.041 117.35 109.734C117.595 109.412 117.718 109.052 117.718 108.653C117.718 108.162 117.542 107.771 117.189 107.48C116.836 107.173 116.376 106.936 115.809 106.767C115.257 106.583 114.636 106.414 113.946 106.261C113.271 106.108 112.589 105.931 111.899 105.732C111.224 105.517 110.603 105.249 110.036 104.927C109.484 104.59 109.032 104.145 108.679 103.593C108.326 103.041 108.15 102.336 108.15 101.477C108.15 100.603 108.38 99.8057 108.84 99.085C109.315 98.349 110.028 97.7663 110.979 97.337C111.945 96.8923 113.164 96.67 114.636 96.67C115.602 96.67 116.56 96.7927 117.511 97.038C118.462 97.2833 119.29 97.636 119.995 98.096L119.052 100.419C118.331 99.9897 117.588 99.6753 116.821 99.476C116.054 99.2613 115.318 99.154 114.613 99.154C113.785 99.154 113.11 99.2537 112.589 99.453C112.083 99.6523 111.707 99.913 111.462 100.235C111.232 100.557 111.117 100.925 111.117 101.339C111.117 101.83 111.286 102.228 111.623 102.535C111.976 102.826 112.428 103.056 112.98 103.225C113.547 103.394 114.176 103.562 114.866 103.731C115.556 103.884 116.238 104.061 116.913 104.26C117.603 104.459 118.224 104.72 118.776 105.042C119.343 105.364 119.796 105.801 120.133 106.353C120.486 106.905 120.662 107.603 120.662 108.446C120.662 109.305 120.424 110.102 119.949 110.838C119.489 111.559 118.776 112.141 117.81 112.586C116.844 113.015 115.625 113.23 114.153 113.23ZM139.198 100.58C140.179 100.58 141.046 100.772 141.797 101.155C142.564 101.538 143.162 102.129 143.591 102.926C144.02 103.708 144.235 104.72 144.235 105.962V113H141.36V106.33C141.36 105.241 141.122 104.429 140.647 103.892C140.172 103.355 139.489 103.087 138.6 103.087C137.971 103.087 137.412 103.225 136.921 103.501C136.446 103.777 136.07 104.183 135.794 104.72C135.533 105.257 135.403 105.939 135.403 106.767V113H132.528V106.33C132.528 105.241 132.29 104.429 131.815 103.892C131.34 103.355 130.657 103.087 129.768 103.087C129.139 103.087 128.58 103.225 128.089 103.501C127.614 103.777 127.238 104.183 126.962 104.72C126.701 105.257 126.571 105.939 126.571 106.767V113H123.696V100.718H126.433V103.984L125.95 103.018C126.364 102.221 126.962 101.615 127.744 101.201C128.541 100.787 129.446 100.58 130.458 100.58C131.608 100.58 132.605 100.864 133.448 101.431C134.307 101.998 134.874 102.857 135.15 104.007L134.023 103.616C134.422 102.696 135.081 101.96 136.001 101.408C136.921 100.856 137.987 100.58 139.198 100.58ZM155.821 113V110.516L155.66 109.987V105.64C155.66 104.797 155.407 104.145 154.901 103.685C154.395 103.21 153.628 102.972 152.601 102.972C151.911 102.972 151.228 103.079 150.554 103.294C149.894 103.509 149.335 103.808 148.875 104.191L147.748 102.098C148.407 101.592 149.189 101.216 150.094 100.971C151.014 100.71 151.964 100.58 152.946 100.58C154.724 100.58 156.097 101.009 157.063 101.868C158.044 102.711 158.535 104.022 158.535 105.801V113H155.821ZM151.957 113.161C151.037 113.161 150.232 113.008 149.542 112.701C148.852 112.379 148.315 111.942 147.932 111.39C147.564 110.823 147.38 110.186 147.38 109.481C147.38 108.791 147.541 108.17 147.863 107.618C148.2 107.066 148.744 106.629 149.496 106.307C150.247 105.985 151.244 105.824 152.486 105.824H156.051V107.733H152.693C151.711 107.733 151.052 107.894 150.715 108.216C150.377 108.523 150.209 108.906 150.209 109.366C150.209 109.887 150.416 110.301 150.83 110.608C151.244 110.915 151.819 111.068 152.555 111.068C153.26 111.068 153.889 110.907 154.441 110.585C155.008 110.263 155.414 109.788 155.66 109.159L156.143 110.884C155.867 111.605 155.368 112.164 154.648 112.563C153.942 112.962 153.045 113.161 151.957 113.161ZM162.569 113V100.718H165.306V104.099L164.984 103.11C165.352 102.282 165.927 101.653 166.709 101.224C167.507 100.795 168.496 100.58 169.676 100.58V103.317C169.554 103.286 169.439 103.271 169.331 103.271C169.224 103.256 169.117 103.248 169.009 103.248C167.921 103.248 167.054 103.57 166.41 104.214C165.766 104.843 165.444 105.786 165.444 107.043V113H162.569ZM177.533 113.161C176.183 113.161 175.141 112.816 174.405 112.126C173.669 111.421 173.301 110.386 173.301 109.021V98.004H176.176V108.952C176.176 109.535 176.321 109.987 176.613 110.309C176.919 110.631 177.341 110.792 177.878 110.792C178.522 110.792 179.058 110.623 179.488 110.286L180.293 112.333C179.955 112.609 179.541 112.816 179.051 112.954C178.56 113.092 178.054 113.161 177.533 113.161ZM171.277 103.11V100.81H179.465V103.11H171.277ZM188.371 113.161C187.007 113.161 185.811 112.893 184.783 112.356C183.771 111.804 182.982 111.053 182.414 110.102C181.862 109.151 181.586 108.07 181.586 106.859C181.586 105.632 181.855 104.551 182.391 103.616C182.943 102.665 183.695 101.922 184.645 101.385C185.611 100.848 186.708 100.58 187.934 100.58C189.13 100.58 190.196 100.841 191.131 101.362C192.067 101.883 192.803 102.619 193.339 103.57C193.876 104.521 194.144 105.64 194.144 106.928C194.144 107.051 194.137 107.189 194.121 107.342C194.121 107.495 194.114 107.641 194.098 107.779H183.863V105.87H192.58L191.453 106.468C191.469 105.763 191.323 105.142 191.016 104.605C190.71 104.068 190.288 103.647 189.751 103.34C189.23 103.033 188.624 102.88 187.934 102.88C187.229 102.88 186.608 103.033 186.071 103.34C185.55 103.647 185.136 104.076 184.829 104.628C184.538 105.165 184.392 105.801 184.392 106.537V106.997C184.392 107.733 184.561 108.385 184.898 108.952C185.236 109.519 185.711 109.956 186.324 110.263C186.938 110.57 187.643 110.723 188.44 110.723C189.13 110.723 189.751 110.616 190.303 110.401C190.855 110.186 191.346 109.849 191.775 109.389L193.316 111.16C192.764 111.804 192.067 112.302 191.223 112.655C190.395 112.992 189.445 113.161 188.371 113.161ZM197.251 113V100.718H199.988V104.099L199.666 103.11C200.034 102.282 200.609 101.653 201.391 101.224C202.188 100.795 203.177 100.58 204.358 100.58V103.317C204.235 103.286 204.12 103.271 204.013 103.271C203.906 103.256 203.798 103.248 203.691 103.248C202.602 103.248 201.736 103.57 201.092 104.214C200.448 104.843 200.126 105.786 200.126 107.043V113H197.251ZM214.232 113V96.9H221.27C223.018 96.9 224.551 97.2373 225.87 97.912C227.188 98.5867 228.216 99.522 228.952 100.718C229.688 101.914 230.056 103.325 230.056 104.95C230.056 106.56 229.688 107.971 228.952 109.182C228.216 110.378 227.188 111.313 225.87 111.988C224.551 112.663 223.018 113 221.27 113H214.232ZM217.222 110.47H221.132C222.343 110.47 223.386 110.24 224.26 109.78C225.149 109.32 225.831 108.676 226.307 107.848C226.797 107.02 227.043 106.054 227.043 104.95C227.043 103.831 226.797 102.865 226.307 102.052C225.831 101.224 225.149 100.58 224.26 100.12C223.386 99.66 222.343 99.43 221.132 99.43H217.222V110.47ZM239.076 113.161C237.711 113.161 236.515 112.893 235.488 112.356C234.476 111.804 233.686 111.053 233.119 110.102C232.567 109.151 232.291 108.07 232.291 106.859C232.291 105.632 232.559 104.551 233.096 103.616C233.648 102.665 234.399 101.922 235.35 101.385C236.316 100.848 237.412 100.58 238.639 100.58C239.835 100.58 240.9 100.841 241.836 101.362C242.771 101.883 243.507 102.619 244.044 103.57C244.58 104.521 244.849 105.64 244.849 106.928C244.849 107.051 244.841 107.189 244.826 107.342C244.826 107.495 244.818 107.641 244.803 107.779H234.568V105.87H243.285L242.158 106.468C242.173 105.763 242.027 105.142 241.721 104.605C241.414 104.068 240.992 103.647 240.456 103.34C239.934 103.033 239.329 102.88 238.639 102.88C237.933 102.88 237.312 103.033 236.776 103.34C236.254 103.647 235.84 104.076 235.534 104.628C235.242 105.165 235.097 105.801 235.097 106.537V106.997C235.097 107.733 235.265 108.385 235.603 108.952C235.94 109.519 236.415 109.956 237.029 110.263C237.642 110.57 238.347 110.723 239.145 110.723C239.835 110.723 240.456 110.616 241.008 110.401C241.56 110.186 242.05 109.849 242.48 109.389L244.021 111.16C243.469 111.804 242.771 112.302 241.928 112.655C241.1 112.992 240.149 113.161 239.076 113.161ZM253.59 113.161C252.302 113.161 251.152 112.893 250.14 112.356C249.143 111.804 248.361 111.053 247.794 110.102C247.227 109.151 246.943 108.07 246.943 106.859C246.943 105.632 247.227 104.551 247.794 103.616C248.361 102.665 249.143 101.922 250.14 101.385C251.152 100.848 252.302 100.58 253.59 100.58C254.786 100.58 255.836 100.825 256.741 101.316C257.661 101.791 258.359 102.497 258.834 103.432L256.626 104.72C256.258 104.137 255.806 103.708 255.269 103.432C254.748 103.156 254.18 103.018 253.567 103.018C252.862 103.018 252.225 103.171 251.658 103.478C251.091 103.785 250.646 104.229 250.324 104.812C250.002 105.379 249.841 106.062 249.841 106.859C249.841 107.656 250.002 108.346 250.324 108.929C250.646 109.496 251.091 109.933 251.658 110.24C252.225 110.547 252.862 110.7 253.567 110.7C254.18 110.7 254.748 110.562 255.269 110.286C255.806 110.01 256.258 109.581 256.626 108.998L258.834 110.286C258.359 111.206 257.661 111.919 256.741 112.425C255.836 112.916 254.786 113.161 253.59 113.161ZM261.552 113V100.718H264.427V113H261.552ZM263.001 98.694C262.464 98.694 262.02 98.5253 261.667 98.188C261.33 97.8507 261.161 97.4443 261.161 96.969C261.161 96.4783 261.33 96.072 261.667 95.75C262.02 95.4127 262.464 95.244 263.001 95.244C263.538 95.244 263.975 95.405 264.312 95.727C264.665 96.0337 264.841 96.4247 264.841 96.9C264.841 97.406 264.672 97.8353 264.335 98.188C263.998 98.5253 263.553 98.694 263.001 98.694ZM272.341 113.161C271.313 113.161 270.324 113.031 269.374 112.77C268.438 112.494 267.695 112.164 267.143 111.781L268.247 109.596C268.799 109.949 269.458 110.24 270.225 110.47C270.991 110.7 271.758 110.815 272.525 110.815C273.429 110.815 274.081 110.692 274.48 110.447C274.894 110.202 275.101 109.872 275.101 109.458C275.101 109.121 274.963 108.868 274.687 108.699C274.411 108.515 274.05 108.377 273.606 108.285C273.161 108.193 272.663 108.109 272.111 108.032C271.574 107.955 271.03 107.856 270.478 107.733C269.941 107.595 269.45 107.403 269.006 107.158C268.561 106.897 268.201 106.552 267.925 106.123C267.649 105.694 267.511 105.126 267.511 104.421C267.511 103.639 267.733 102.964 268.178 102.397C268.622 101.814 269.243 101.37 270.041 101.063C270.853 100.741 271.812 100.58 272.916 100.58C273.744 100.58 274.579 100.672 275.423 100.856C276.266 101.04 276.964 101.301 277.516 101.638L276.412 103.823C275.829 103.47 275.239 103.233 274.641 103.11C274.058 102.972 273.475 102.903 272.893 102.903C272.019 102.903 271.367 103.033 270.938 103.294C270.524 103.555 270.317 103.884 270.317 104.283C270.317 104.651 270.455 104.927 270.731 105.111C271.007 105.295 271.367 105.441 271.812 105.548C272.256 105.655 272.747 105.747 273.284 105.824C273.836 105.885 274.38 105.985 274.917 106.123C275.453 106.261 275.944 106.453 276.389 106.698C276.849 106.928 277.217 107.258 277.493 107.687C277.769 108.116 277.907 108.676 277.907 109.366C277.907 110.133 277.677 110.8 277.217 111.367C276.772 111.934 276.136 112.379 275.308 112.701C274.48 113.008 273.491 113.161 272.341 113.161ZM280.727 113V100.718H283.602V113H280.727ZM282.176 98.694C281.64 98.694 281.195 98.5253 280.842 98.188C280.505 97.8507 280.336 97.4443 280.336 96.969C280.336 96.4783 280.505 96.072 280.842 95.75C281.195 95.4127 281.64 95.244 282.176 95.244C282.713 95.244 283.15 95.405 283.487 95.727C283.84 96.0337 284.016 96.4247 284.016 96.9C284.016 97.406 283.848 97.8353 283.51 98.188C283.173 98.5253 282.728 98.694 282.176 98.694ZM293.241 113.161C291.984 113.161 290.864 112.893 289.883 112.356C288.902 111.804 288.127 111.053 287.56 110.102C286.993 109.151 286.709 108.07 286.709 106.859C286.709 105.632 286.993 104.551 287.56 103.616C288.127 102.665 288.902 101.922 289.883 101.385C290.864 100.848 291.984 100.58 293.241 100.58C294.514 100.58 295.641 100.848 296.622 101.385C297.619 101.922 298.393 102.658 298.945 103.593C299.512 104.528 299.796 105.617 299.796 106.859C299.796 108.07 299.512 109.151 298.945 110.102C298.393 111.053 297.619 111.804 296.622 112.356C295.641 112.893 294.514 113.161 293.241 113.161ZM293.241 110.7C293.946 110.7 294.575 110.547 295.127 110.24C295.679 109.933 296.108 109.489 296.415 108.906C296.737 108.323 296.898 107.641 296.898 106.859C296.898 106.062 296.737 105.379 296.415 104.812C296.108 104.229 295.679 103.785 295.127 103.478C294.575 103.171 293.954 103.018 293.264 103.018C292.559 103.018 291.93 103.171 291.378 103.478C290.841 103.785 290.412 104.229 290.09 104.812C289.768 105.379 289.607 106.062 289.607 106.859C289.607 107.641 289.768 108.323 290.09 108.906C290.412 109.489 290.841 109.933 291.378 110.24C291.93 110.547 292.551 110.7 293.241 110.7ZM309.859 100.58C310.84 100.58 311.714 100.772 312.481 101.155C313.263 101.538 313.876 102.129 314.321 102.926C314.766 103.708 314.988 104.72 314.988 105.962V113H312.113V106.33C312.113 105.241 311.852 104.429 311.331 103.892C310.825 103.355 310.112 103.087 309.192 103.087C308.517 103.087 307.919 103.225 307.398 103.501C306.877 103.777 306.47 104.191 306.179 104.743C305.903 105.28 305.765 105.962 305.765 106.79V113H302.89V100.718H305.627V104.03L305.144 103.018C305.573 102.236 306.194 101.638 307.007 101.224C307.835 100.795 308.786 100.58 309.859 100.58ZM322.775 113.161C321.748 113.161 320.759 113.031 319.808 112.77C318.873 112.494 318.129 112.164 317.577 111.781L318.681 109.596C319.233 109.949 319.893 110.24 320.659 110.47C321.426 110.7 322.193 110.815 322.959 110.815C323.864 110.815 324.516 110.692 324.914 110.447C325.328 110.202 325.535 109.872 325.535 109.458C325.535 109.121 325.397 108.868 325.121 108.699C324.845 108.515 324.485 108.377 324.04 108.285C323.596 108.193 323.097 108.109 322.545 108.032C322.009 107.955 321.464 107.856 320.912 107.733C320.376 107.595 319.885 107.403 319.44 107.158C318.996 106.897 318.635 106.552 318.359 106.123C318.083 105.694 317.945 105.126 317.945 104.421C317.945 103.639 318.168 102.964 318.612 102.397C319.057 101.814 319.678 101.37 320.475 101.063C321.288 100.741 322.246 100.58 323.35 100.58C324.178 100.58 325.014 100.672 325.857 100.856C326.701 101.04 327.398 101.301 327.95 101.638L326.846 103.823C326.264 103.47 325.673 103.233 325.075 103.11C324.493 102.972 323.91 102.903 323.327 102.903C322.453 102.903 321.802 103.033 321.372 103.294C320.958 103.555 320.751 103.884 320.751 104.283C320.751 104.651 320.889 104.927 321.165 105.111C321.441 105.295 321.802 105.441 322.246 105.548C322.691 105.655 323.182 105.747 323.718 105.824C324.27 105.885 324.815 105.985 325.351 106.123C325.888 106.261 326.379 106.453 326.823 106.698C327.283 106.928 327.651 107.258 327.927 107.687C328.203 108.116 328.341 108.676 328.341 109.366C328.341 110.133 328.111 110.8 327.651 111.367C327.207 111.934 326.57 112.379 325.742 112.701C324.914 113.008 323.925 113.161 322.775 113.161ZM332.082 113.161C331.561 113.161 331.116 112.985 330.748 112.632C330.38 112.264 330.196 111.804 330.196 111.252C330.196 110.669 330.38 110.209 330.748 109.872C331.116 109.519 331.561 109.343 332.082 109.343C332.603 109.343 333.048 109.519 333.416 109.872C333.784 110.209 333.968 110.669 333.968 111.252C333.968 111.804 333.784 112.264 333.416 112.632C333.048 112.985 332.603 113.161 332.082 113.161ZM344.1 113V96.9H351.138C352.886 96.9 354.419 97.2373 355.738 97.912C357.056 98.5867 358.084 99.522 358.82 100.718C359.556 101.914 359.924 103.325 359.924 104.95C359.924 106.56 359.556 107.971 358.82 109.182C358.084 110.378 357.056 111.313 355.738 111.988C354.419 112.663 352.886 113 351.138 113H344.1ZM347.09 110.47H351C352.211 110.47 353.254 110.24 354.128 109.78C355.017 109.32 355.699 108.676 356.175 107.848C356.665 107.02 356.911 106.054 356.911 104.95C356.911 103.831 356.665 102.865 356.175 102.052C355.699 101.224 355.017 100.58 354.128 100.12C353.254 99.66 352.211 99.43 351 99.43H347.09V110.47ZM368.944 113.161C367.579 113.161 366.383 112.893 365.356 112.356C364.344 111.804 363.554 111.053 362.987 110.102C362.435 109.151 362.159 108.07 362.159 106.859C362.159 105.632 362.427 104.551 362.964 103.616C363.516 102.665 364.267 101.922 365.218 101.385C366.184 100.848 367.28 100.58 368.507 100.58C369.703 100.58 370.768 100.841 371.704 101.362C372.639 101.883 373.375 102.619 373.912 103.57C374.448 104.521 374.717 105.64 374.717 106.928C374.717 107.051 374.709 107.189 374.694 107.342C374.694 107.495 374.686 107.641 374.671 107.779H364.436V105.87H373.153L372.026 106.468C372.041 105.763 371.895 105.142 371.589 104.605C371.282 104.068 370.86 103.647 370.324 103.34C369.802 103.033 369.197 102.88 368.507 102.88C367.801 102.88 367.18 103.033 366.644 103.34C366.122 103.647 365.708 104.076 365.402 104.628C365.11 105.165 364.965 105.801 364.965 106.537V106.997C364.965 107.733 365.133 108.385 365.471 108.952C365.808 109.519 366.283 109.956 366.897 110.263C367.51 110.57 368.215 110.723 369.013 110.723C369.703 110.723 370.324 110.616 370.876 110.401C371.428 110.186 371.918 109.849 372.348 109.389L373.889 111.16C373.337 111.804 372.639 112.302 371.796 112.655C370.968 112.992 370.017 113.161 368.944 113.161ZM377.823 113V95.934H380.698V113H377.823ZM384.817 113V100.718H387.692V113H384.817ZM386.266 98.694C385.729 98.694 385.284 98.5253 384.932 98.188C384.594 97.8507 384.426 97.4443 384.426 96.969C384.426 96.4783 384.594 96.072 384.932 95.75C385.284 95.4127 385.729 95.244 386.266 95.244C386.802 95.244 387.239 95.405 387.577 95.727C387.929 96.0337 388.106 96.4247 388.106 96.9C388.106 97.406 387.937 97.8353 387.6 98.188C387.262 98.5253 386.818 98.694 386.266 98.694ZM395.076 113L389.809 100.718H392.799L397.33 111.551H395.858L400.55 100.718H403.31L398.043 113H395.076ZM410.888 113.161C409.524 113.161 408.328 112.893 407.3 112.356C406.288 111.804 405.499 111.053 404.931 110.102C404.379 109.151 404.103 108.07 404.103 106.859C404.103 105.632 404.372 104.551 404.908 103.616C405.46 102.665 406.212 101.922 407.162 101.385C408.128 100.848 409.225 100.58 410.451 100.58C411.647 100.58 412.713 100.841 413.648 101.362C414.584 101.883 415.32 102.619 415.856 103.57C416.393 104.521 416.661 105.64 416.661 106.928C416.661 107.051 416.654 107.189 416.638 107.342C416.638 107.495 416.631 107.641 416.615 107.779H406.38V105.87H415.097L413.97 106.468C413.986 105.763 413.84 105.142 413.533 104.605C413.227 104.068 412.805 103.647 412.268 103.34C411.747 103.033 411.141 102.88 410.451 102.88C409.746 102.88 409.125 103.033 408.588 103.34C408.067 103.647 407.653 104.076 407.346 104.628C407.055 105.165 406.909 105.801 406.909 106.537V106.997C406.909 107.733 407.078 108.385 407.415 108.952C407.753 109.519 408.228 109.956 408.841 110.263C409.455 110.57 410.16 110.723 410.957 110.723C411.647 110.723 412.268 110.616 412.82 110.401C413.372 110.186 413.863 109.849 414.292 109.389L415.833 111.16C415.281 111.804 414.584 112.302 413.74 112.655C412.912 112.992 411.962 113.161 410.888 113.161ZM419.768 113V100.718H422.505V104.099L422.183 103.11C422.551 102.282 423.126 101.653 423.908 101.224C424.705 100.795 425.694 100.58 426.875 100.58V103.317C426.752 103.286 426.637 103.271 426.53 103.271C426.423 103.256 426.315 103.248 426.208 103.248C425.119 103.248 424.253 103.57 423.609 104.214C422.965 104.843 422.643 105.786 422.643 107.043V113H419.768ZM435.319 113.161C433.955 113.161 432.759 112.893 431.731 112.356C430.719 111.804 429.93 111.053 429.362 110.102C428.81 109.151 428.534 108.07 428.534 106.859C428.534 105.632 428.803 104.551 429.339 103.616C429.891 102.665 430.643 101.922 431.593 101.385C432.559 100.848 433.656 100.58 434.882 100.58C436.078 100.58 437.144 100.841 438.079 101.362C439.015 101.883 439.751 102.619 440.287 103.57C440.824 104.521 441.092 105.64 441.092 106.928C441.092 107.051 441.085 107.189 441.069 107.342C441.069 107.495 441.062 107.641 441.046 107.779H430.811V105.87H439.528L438.401 106.468C438.417 105.763 438.271 105.142 437.964 104.605C437.658 104.068 437.236 103.647 436.699 103.34C436.178 103.033 435.572 102.88 434.882 102.88C434.177 102.88 433.556 103.033 433.019 103.34C432.498 103.647 432.084 104.076 431.777 104.628C431.486 105.165 431.34 105.801 431.34 106.537V106.997C431.34 107.733 431.509 108.385 431.846 108.952C432.184 109.519 432.659 109.956 433.272 110.263C433.886 110.57 434.591 110.723 435.388 110.723C436.078 110.723 436.699 110.616 437.251 110.401C437.803 110.186 438.294 109.849 438.723 109.389L440.264 111.16C439.712 111.804 439.015 112.302 438.171 112.655C437.343 112.992 436.393 113.161 435.319 113.161ZM449.397 113.161C448.216 113.161 447.151 112.9 446.2 112.379C445.265 111.842 444.529 111.106 443.992 110.171C443.455 109.236 443.187 108.132 443.187 106.859C443.187 105.586 443.455 104.482 443.992 103.547C444.529 102.612 445.265 101.883 446.2 101.362C447.151 100.841 448.216 100.58 449.397 100.58C450.424 100.58 451.344 100.81 452.157 101.27C452.97 101.715 453.614 102.397 454.089 103.317C454.564 104.237 454.802 105.418 454.802 106.859C454.802 108.285 454.572 109.466 454.112 110.401C453.652 111.321 453.016 112.011 452.203 112.471C451.39 112.931 450.455 113.161 449.397 113.161ZM449.742 110.7C450.432 110.7 451.045 110.547 451.582 110.24C452.134 109.933 452.571 109.489 452.893 108.906C453.23 108.323 453.399 107.641 453.399 106.859C453.399 106.062 453.23 105.379 452.893 104.812C452.571 104.229 452.134 103.785 451.582 103.478C451.045 103.171 450.432 103.018 449.742 103.018C449.052 103.018 448.431 103.171 447.879 103.478C447.342 103.785 446.905 104.229 446.568 104.812C446.246 105.379 446.085 106.062 446.085 106.859C446.085 107.641 446.246 108.323 446.568 108.906C446.905 109.489 447.342 109.933 447.879 110.24C448.431 110.547 449.052 110.7 449.742 110.7ZM453.468 113V110.102L453.583 106.836L453.353 103.57V95.934H456.205V113H453.468ZM461.254 113.161C460.733 113.161 460.288 112.985 459.92 112.632C459.552 112.264 459.368 111.804 459.368 111.252C459.368 110.669 459.552 110.209 459.92 109.872C460.288 109.519 460.733 109.343 461.254 109.343C461.775 109.343 462.22 109.519 462.588 109.872C462.956 110.209 463.14 110.669 463.14 111.252C463.14 111.804 462.956 112.264 462.588 112.632C462.22 112.985 461.775 113.161 461.254 113.161Z" fill="black"/>
</svg>
